<svg xmlns="http://www.w3.org/2000/svg" viewBox="0 0 100 75.94"><defs><style>.cls-1{fill:#ef4562;}</style></defs><title>fffRecurso 1</title><g id="Capa_2" data-name="Capa 2"><g id="Capa_1-2" data-name="Capa 1"><path class="cls-1" d="M11.87,65.68,8.32,75.77h-1L3.58,65.68l-1,7.77a2.81,2.81,0,0,0,0,.47c0,.92.4,1.12,1.79,1.18v.67H0V75.1C1.07,75,1.42,74.84,1.56,74l1.18-9.36c.15-1-.37-1.32-1.58-1.38v-.64H5.37a6.6,6.6,0,0,0,.26,1.16l3.06,8.14,2.84-8.2a3.08,3.08,0,0,0,.28-1.13H16v.64c-1.21.06-1.67.37-1.56,1.39L15.57,74c.09.9.49,1.07,1.56,1.1v.67H11.06v-.67c1.3-.06,1.76-.26,1.76-1.18a4.21,4.21,0,0,0,0-.46Zm14.94,8.81a2.27,2.27,0,0,1-.76.21c-.46,0-.63-.44-.63-1.07v-5c0-2.22-1.3-3.06-3.67-3.06C19.64,65.6,18,66.38,18,68a1.25,1.25,0,0,0,1.33,1.35A1.28,1.28,0,0,0,20.77,68a1.12,1.12,0,0,0-.93-1.19c.26-.4.78-.63,1.68-.63s1.33.75,1.33,1.84v1.59l-2.83,1c-1.39.49-2.54,1.19-2.54,2.78A2.29,2.29,0,0,0,20,75.79a3.75,3.75,0,0,0,2.94-1.61,1.85,1.85,0,0,0,1.88,1.64,2.71,2.71,0,0,0,2.11-1Zm-4-.69a2.18,2.18,0,0,1-1.45.61c-1,0-1.44-.67-1.44-1.65A1.71,1.71,0,0,1,21.26,71l1.62-.63V73.8ZM27.18,75,27,72.41h.69c.43,1.62,1.36,2.84,2.8,2.84,1,0,1.79-.47,1.79-1.54s-.69-1.41-2.14-1.93c-2-.69-3-1.47-3-3.21s1.42-3,3.47-3a5.88,5.88,0,0,1,3.06.78v2.28H33c-.31-1.33-1.09-2.46-2.39-2.46a1.36,1.36,0,0,0-1.53,1.39c0,.84.6,1.24,2.05,1.79,2,.7,3.2,1.45,3.2,3.29,0,2-1.47,3.18-3.78,3.18A5.41,5.41,0,0,1,27.18,75Zm11.21-9.22h2.45v.87H38.39v6.24c0,1.12.43,1.61,1.33,1.61A2.35,2.35,0,0,0,41.1,74l.26.32a3.36,3.36,0,0,1-2.91,1.62c-1.53,0-2.63-.78-2.63-2.92V66.64H34.66v-.35a8.08,8.08,0,0,0,3.21-2.86h.6Zm11.18,6.85a3.28,3.28,0,0,1-2.81,1.53c-1.84,0-3.17-1.59-3.09-4.19H49.8v-.43a3.6,3.6,0,0,0-3.87-3.9c-2.54,0-4.62,2.22-4.62,5.43,0,2.86,1.84,4.88,4.56,4.88a3.93,3.93,0,0,0,4-3.15Zm-3.84-6.3c1.21,0,1.67,1.18,1.67,3H43.67c.18-1.74.78-3,2.06-3Zm22.9-2.8,0,3h-.72c-.44-2.14-1.53-3.32-3.38-3.32C62,63.2,60.8,65.77,60.8,69c0,3.49,1.39,6.15,3.93,6.15,1.79,0,3-1.13,3.61-3.84h.75l-.29,3.52a7.92,7.92,0,0,1-4.33,1.13c-4.1,0-6.61-2.54-6.61-6.44,0-4.36,2.91-7.14,6.61-7.14A7.19,7.19,0,0,1,68.63,63.52ZM73.4,74.29c0,.67.26.75,1.15.84v.64h-5v-.64c.87-.06,1.16-.17,1.16-.84v-10l-1.1-.61v-.4l3.32-.9h.44Zm10.83.2a2.15,2.15,0,0,1-.75.21c-.49,0-.64-.44-.64-1.07l0-5c0-2.22-1.33-3.06-3.7-3.06-2.1,0-3.72.78-3.72,2.37a1.25,1.25,0,0,0,1.33,1.35A1.28,1.28,0,0,0,78.19,68a1.12,1.12,0,0,0-.92-1.19,1.84,1.84,0,0,1,1.67-.63c1,0,1.33.75,1.33,1.84v1.59l-2.83,1c-1.39.49-2.54,1.19-2.54,2.78a2.29,2.29,0,0,0,2.51,2.39,3.79,3.79,0,0,0,3-1.61,1.84,1.84,0,0,0,1.88,1.64,2.7,2.7,0,0,0,2.1-1Zm-4-.69a2.16,2.16,0,0,1-1.44.61c-1,0-1.45-.67-1.45-1.65A1.72,1.72,0,0,1,78.68,71l1.62-.63V73.8ZM84.66,75l-.08-2.58h.69c.4,1.62,1.36,2.84,2.8,2.84,1,0,1.79-.47,1.79-1.54s-.69-1.41-2.17-1.93c-2-.69-3-1.47-3-3.21s1.42-3,3.5-3a5.77,5.77,0,0,1,3,.78v2.28h-.64c-.28-1.33-1.09-2.46-2.39-2.46a1.37,1.37,0,0,0-1.56,1.39c0,.84.6,1.24,2.05,1.79,2,.7,3.23,1.45,3.23,3.29,0,2-1.53,3.18-3.84,3.18A5.23,5.23,0,0,1,84.66,75Zm8.12,0-.09-2.58h.7c.4,1.62,1.35,2.84,2.8,2.84,1,0,1.79-.47,1.79-1.54s-.72-1.41-2.14-1.93c-2-.69-3-1.47-3-3.21s1.41-3,3.49-3a5.78,5.78,0,0,1,3,.78v2.28H98.7c-.29-1.33-1.1-2.46-2.4-2.46a1.35,1.35,0,0,0-1.53,1.39c0,.84.55,1.24,2,1.79,2,.7,3.21,1.45,3.21,3.29,0,2-1.47,3.18-3.78,3.18A5.51,5.51,0,0,1,92.78,75ZM56.3,65.66c-1,0-1.68.72-2.4,2.77L54,65.66h-.44l-3.38,1V67l1.13.7v6.61c0,.66-.29.75-1.15.84v.63h5.34v-.63c-1.16-.09-1.59-.2-1.59-1V69.41a5.64,5.64,0,0,1,1-1.7,1.31,1.31,0,0,0,1.19.72A1.38,1.38,0,0,0,57.54,67a1.18,1.18,0,0,0-1.24-1.35ZM20.8,0H41.51s5.92,20.51,7.59,26.14c.93,3.06,2.55,4.65,6.19,4.25L50,48.15H39.43S31.28,18.6,28.34,8.38C27.61,5.86,27,3.93,24,3.93H20.77V0ZM59.19,0H75s7.65,27.5,11.78,40.53c.61,1.93,1.59,3.09,3.81,3.17.87,0,3.41,0,3.41,0v4.48H72.93ZM6.44,43.79H24.73v4.36H6.44Z"/></g></g></svg>